{"title":"Legend of the Boneknapper Dragon[2010]DVDrip-BONE","uid":5929233,"size":155123946,"categoryP":"video","categoryS":"other","magnet":"?xt=urn:btih:4d8dacbf46c4b3594560fb7c89ac3aa1828ec4ea&amp;dn=Legend+of+the+Boneknapper+Dragon%5B2010%5DDVDrip-BONE&amp;tr=udp%3A%2F%2Ftracker.openbittorrent.com%3A80&amp;tr=udp%3A%2F%2Fopen.demonii.com%3A1337&amp;tr=udp%3A%2F%2Ftracker.coppersurfer.tk%3A6969&amp;tr=udp%3A%2F%2Fexodus.desync.com%3A6969","seeders":1,"leechers":0,"uploader":"XoLWoX","files":-1,"time":1288717373,"description":"[img]http://imgr.us/images/qeyvvmsqk5581rdlc3w.png[/img]\nLegend.of.the .Boneknapper.Dragon.2010.DVDRip-BONE\n\nruntime - 16min 34sec\nvideo - 1.03mbps\naudio - 5.1 224kbs\nres - 720x400\n\n\nVideo\nID                               : 1\nFormat                           : AVC\nFormat/Info                      : Advanced Video Codec\nFormat profile                   : &lt;a class=&quot;__cf_email__&quot; href=&quot;/cdn-cgi/l/email-protection&quot; data-cfemail=&quot;c588a4acab8589f6ebf5&quot;&gt;[email&amp;#160;protected]&lt;/a&gt;&lt;script cf-hash='f9e31' type=&quot;text/javascript&quot;&gt;\n/* &lt;![CDATA[ */!function(){try{var t=&quot;currentScript&quot;in document?document.currentScript:function(){for(var t=document.getElementsByTagName(&quot;script&quot;),e=t.length;e--;)if(t[e].getAttribute(&quot;cf-hash&quot;))return t[e]}();if(t&amp;&amp;t.previousSibling){var e,r,n,i,c=t.previousSibling,a=c.getAttribute(&quot;data-cfemail&quot;);if(a){for(e=&quot;&quot;,r=parseInt(a.substr(0,2),16),n=2;a.length-n;n+=2)i=parseInt(a.substr(n,2),16)^r,e+=String.fromCharCode(i);e=document.createTextNode(e),c.parentNode.replaceChild(e,c)}}}catch(u){}}();/* ]]&gt; */&lt;/script&gt;\nFormat settings, CABAC           : Yes\nFormat settings, ReFrames        : 2 frames\nFormat settings, GOP             : M=1, N=32\nCodec ID                         : avc1\nCodec ID/Info                    : Advanced Video Coding\nDuration                         : 16mn 34s\nBit rate mode                    : Variable\nBit rate                         : 1 018 Kbps\nMaximum bit rate                 : 3 475 Kbps\nWidth                            : 720 pixels\nHeight                           : 400 pixels\nDisplay aspect ratio             : 16:9\nFrame rate mode                  : Constant\nFrame rate                       : 23.976 fps\nColor space                      : YUV\nChroma subsampling               : 4:2:0\nBit depth                        : 8 bits\nScan type                        : Progressive\nBits/(Pixel*Frame)               : 0.147\nStream size                      : 121 MiB (82%)\nLanguage                         : English\n\n\n\nAudio\nID                               : 2\nFormat                           : AAC\nFormat/Info                      : Advanced Audio Codec\nFormat version                   : Version 4\nFormat profile                   : LC\nFormat settings, SBR             : No\nCodec ID                         : 40\nDuration                         : 16mn 34s\nBit rate mode                    : Variable\nBit rate                         : 222 Kbps\nMaximum bit rate                 : 303 Kbps\nChannel(s)                       : 6 channels\nChannel positions                : Front: L C R, Side: L R, LFE\nSampling rate                    : 48.0 KHz\nStream size                      : 26.3 MiB (18%)\nTitle                            : Dolby Digital 5.1-ch 48KHz\nLanguage                         : English\n\n &lt;a href=&quot;\nhttp://www.imdb.com/title/tt1744776/&quot; rel=&quot;nofollow&quot; target=&quot;_NEW&quot;&gt;\nhttp://www.imdb.com/title/tt1744776/&lt;/a&gt;\n\n\n[img]http://imgr.us/images/fhn7syiecb0he2l4de07.png[/img]\n[img]http://imgr.us/images/ia9w3odspjl86g6cr38a.png[/img]\n[img]http://imgr.us/images/eu29krhrvf1wp6yt787.png[/img]\n[img]http://imgr.us/images/pvzpptwqknnpuqwh2idi.png[/img]","torrent":{"xt":"urn:btih:4d8dacbf46c4b3594560fb7c89ac3aa1828ec4ea","amp;dn":"Legend+of+the+Boneknapper+Dragon%5B2010%5DDVDrip-BONE","amp;tr":["udp%3A%2F%2Ftracker.openbittorrent.com%3A80","udp%3A%2F%2Fopen.demonii.com%3A1337","udp%3A%2F%2Ftracker.coppersurfer.tk%3A6969","udp%3A%2F%2Fexodus.desync.com%3A6969"],"infoHash":"4d8dacbf46c4b3594560fb7c89ac3aa1828ec4ea","infoHashBuffer":{"type":"Buffer","data":[77,141,172,191,70,196,179,89,69,96,251,124,137,172,58,161,130,142,196,234]},"announce":[],"urlList":[]}}